<svg width="200" height="163" viewBox="0 0 200 163" fill="none" xmlns="http://www.w3.org/2000/svg">
<path fill-rule="evenodd" clip-rule="evenodd" d="M169.4 81.38C169.4 95.1821 163.866 97.656 157.681 97.656H144.53V65.104H157.681C163.866 65.104 169.4 67.578 169.4 81.38V81.38ZM162.695 81.38C162.695 71.7446 159.766 71.2889 155.534 71.2889H151.432V91.4711H155.534C159.766 91.4711 162.695 91.0154 162.695 81.38V81.38ZM93.0334 97.656V65.104H113.736V71.2889H99.9344V77.9295H110.351V84.0493H99.9344V91.4712H113.736V97.656H93.0334ZM125.326 162.76H132.227V0H125.326V162.76ZM183.202 83.2029V91.4711H188.931C192.512 91.4711 193.424 89.1274 193.424 87.3696C193.424 86.0024 192.772 83.2029 187.89 83.2029H183.202ZM183.202 71.2889V77.4738H187.89C190.559 77.4738 192.121 76.3019 192.121 74.3488C192.121 72.3957 190.559 71.2889 187.89 71.2889H183.202ZM176.302 65.104H189.583C196.549 65.104 198.633 69.9868 198.633 73.5025C198.633 76.7577 196.549 79.1014 195.117 79.7524C199.284 81.7707 200 85.8722 200 87.9555C200 90.6899 198.633 97.656 189.583 97.656H176.302V65.104ZM53.3861 81.38C53.3861 95.1821 47.8522 97.656 41.6673 97.656H28.5163V65.104H41.6673C47.8522 65.104 53.3861 67.578 53.3861 81.38V81.38ZM73.6979 91.7316C77.2135 91.7316 79.0364 90.5597 79.6875 89.7784V86.1977H74.0885V80.5988H85.2213V93.5545C84.2448 95.0519 78.9062 97.9815 74.0234 97.9815C66.0156 97.9815 59.2448 94.8565 59.2448 81.0545C59.2448 67.2525 66.0807 64.7785 72.2656 64.7785C81.9661 64.7785 84.375 69.8566 85.1562 74.3488L79.4271 75.6509C79.1015 73.5675 77.2786 70.9634 73.112 70.9634C68.8802 70.9634 65.9505 71.4191 65.9505 81.0545C65.9505 90.6899 69.0104 91.7316 73.6979 91.7316V91.7316ZM46.6794 81.38C46.6794 71.7446 43.7497 71.2889 39.518 71.2889H35.4164V91.4711H39.518C43.7497 91.4711 46.6794 91.0154 46.6794 81.38V81.38ZM0 97.656V65.104H20.7031V71.2889H6.90102V77.9295H17.3177V84.0493H6.90102V91.4712H20.7031V97.656H0Z" fill="white"/>
</svg>
